<svg width="87" height="41" viewBox="0 0 87 41" fill="none" xmlns="http://www.w3.org/2000/svg">
<path fill-rule="evenodd" clip-rule="evenodd" d="M28.6 15.7C22.3 15.6 17.1 20.6 17 26.9C16.9 33.2 21.9 38.4 28.2 38.5C28.4 38.5 28.5 38.5 28.7 38.5C35 38.4 40 33.2 39.9 26.9C39.7 20.8 34.7 15.8 28.6 15.7ZM42.3 27.1C42.4 34.7 36.3 40.9 28.8 41C21.2 41.1 15 35 14.9 27.5C14.9 27.4 14.9 27.3 14.9 27.1C15 19.5 21.2 13.5 28.8 13.6C36.2 13.7 42.2 19.7 42.3 27.1Z" fill="#FCB030"/>
<path fill-rule="evenodd" clip-rule="evenodd" d="M58.3 15.7C52 15.7 46.9 20.8 46.9 27.1C46.9 33.4 52 38.5 58.3 38.5C64.6 38.6 69.8 33.6 69.9 27.3C70 21 65 15.8 58.7 15.7C58.6 15.7 58.4 15.7 58.3 15.7ZM72 27.1C72 34.7 65.9 40.8 58.3 40.8C50.7 40.8 44.6 34.7 44.6 27.1C44.6 19.5 50.7 13.4 58.3 13.4C65.9 13.4 72 19.5 72 27.1Z" fill="#00A652"/>
<path fill-rule="evenodd" clip-rule="evenodd" d="M13.8 0.899994C6.19998 0.899994 0.0999756 7.00001 0.0999756 14.6C0.0999756 22.2 6.19998 28.3 13.8 28.3C14.2 28.3 14.6 28.3 15 28.2C15 27.8 15 27.5 15 27.1C15 26.7 15 26.3 15.1 25.9C14.7 25.9 14.3 26 13.9 26C7.59998 26 2.49998 20.9 2.49998 14.6C2.49998 8.30001 7.59998 3.2 13.9 3.2C20.2 3.2 25.3 8.30001 25.3 14.6C25.3 19.5 22.1 23.9 17.4 25.5C17.3 26.3 17.2 27.1 17.3 27.9C23.3 26.3 27.5 20.9 27.6 14.6C27.5 7.00001 21.3 0.899994 13.8 0.899994Z" fill="#0082C7"/>
<path fill-rule="evenodd" clip-rule="evenodd" d="M73.1 0.899994C66 0.899994 60 6.4 59.4 13.5C60.2 13.6 60.9 13.7 61.7 13.9C62.1 7.59999 67.5 2.8 73.8 3.2C79.8 3.6 84.5 8.60001 84.5 14.6C85.5 20.8 81.2 26.7 74.9 27.6C68.7 28.6 62.8 24.3 61.9 18C61.8 17.4 61.8 16.8 61.8 16.3C61 16.1 60.2 15.9 59.4 15.8C60.1 23.3 66.7 28.9 74.3 28.2C81.8 27.5 87.4 20.9 86.7 13.3C86.2 6.3 80.2 0.899994 73.1 0.899994Z" fill="#E8384F"/>
<path fill-rule="evenodd" clip-rule="evenodd" d="M43.4 0.899994C36.3 0.899994 30.3 6.4 29.7 13.5C30.5 13.6 31.2 13.7 32 13.9C32.4 7.59999 37.8 2.8 44.1 3.2C50.4 3.6 55.2 9 54.8 15.3C54.5 20 51.4 24 47 25.5C46.9 26.3 46.8 27.1 46.9 27.9C54.2 26 58.6 18.5 56.7 11.2C55.2 5.1 49.7 0.899994 43.4 0.899994Z" fill="black"/>
<path fill-rule="evenodd" clip-rule="evenodd" d="M44.6 27.1C44.6 26.7 44.6 26.3 44.7 25.9C38.6 26.5 33.1 22.3 32.2 16.3C31.4 16.1 30.6 15.9 29.8 15.8C30.5 23.3 37.1 28.9 44.6 28.2C44.6 27.8 44.6 27.5 44.6 27.1Z" fill="black"/>
</svg>
